HIERARCHY
ROOT Hips
{
  OFFSET -853.064 90.6492 450.351
  CHANNELS 6 Xposition Yposition Zposition Zrotation Xrotation Yrotation
  JOINT RightUpLeg
  {
    OFFSET -8.9458 -8.66707 0.101652
    CHANNELS 3 Zrotation Xrotation Yrotation
    JOINT RightLeg
    {
      OFFSET 0 -44.4227 1.3727
      CHANNELS 3 Zrotation Xrotation Yrotation
      JOINT RightFoot
      {
        OFFSET 0.253549 -42.0924 -1.46059
        CHANNELS 3 Zrotation Xrotation Yrotation
        JOINT RightToes
        {
          OFFSET 0.04 -4.41509 8.4991
          CHANNELS 3 Zrotation Xrotation Yrotation
          End Site
          {
            OFFSET -0.08 -0.137448 9.77979
          }
        }
      }
    }
  }
  JOINT Spine
  {
    OFFSET 0 11.8905 0
    CHANNELS 3 Zrotation Xrotation Yrotation
    JOINT Spine1
    {
      OFFSET 0 25.6574 0.127663
      CHANNELS 3 Zrotation Xrotation Yrotation
      JOINT HEad
      {
        OFFSET 0 8.73416 0.011341
        CHANNELS 3 Zrotation Xrotation Yrotation
        End Site
        {
          OFFSET -0.29 12.7742 2.51395
        }
      }
      JOINT LeftShoulder1
      {
        OFFSET 8.99 -0.362252 -0.22
        CHANNELS 3 Zrotation Xrotation Yrotation
        JOINT LeftArm
        {
          OFFSET 10.2827 -0.00338 0.322123
          CHANNELS 3 Zrotation Xrotation Yrotation
          JOINT LeftForeArm
          {
            OFFSET 32.7669 0.099144 -1.42434
            CHANNELS 3 Zrotation Xrotation Yrotation
            JOINT LeftHand
            {
              OFFSET 27.5643 0.085362 1.02216
              CHANNELS 3 Zrotation Xrotation Yrotation
              End Site
              {
                OFFSET 16.7443 -0.6 1.50291
              }
            }
          }
        }
      }
      JOINT RightShoulder
      {
        OFFSET -8.99 -0.362252 -0.22
        CHANNELS 3 Zrotation Xrotation Yrotation
        JOINT RightArm
        {
          OFFSET -10.2827 -0.00338 0.322123
          CHANNELS 3 Zrotation Xrotation Yrotation
          JOINT RightForeArm
          {
            OFFSET -32.8971 0.099144 -1.42434
            CHANNELS 3 Zrotation Xrotation Yrotation
            JOINT RightHand
            {
              OFFSET -27.4921 0.085362 1.02216
              CHANNELS 3 Zrotation Xrotation Yrotation
              End Site
              {
                OFFSET -16.6312 -0.6 1.50291
              }
            }
          }
        }
      }
    }
  }
  JOINT LeftUpLeg
  {
    OFFSET 8.9458 -8.66707 0.101652
    CHANNELS 3 Zrotation Xrotation Yrotation
    JOINT LeftLeg
    {
      OFFSET 0 -44.4227 1.3727
      CHANNELS 3 Zrotation Xrotation Yrotation
      JOINT LeftFoot
      {
        OFFSET -0.253549 -42.0924 -1.46059
        CHANNELS 3 Zrotation Xrotation Yrotation
        JOINT LeftToes
        {
          OFFSET -0.04 -4.41509 8.4991
          CHANNELS 3 Zrotation Xrotation Yrotation
          End Site
          {
            OFFSET 0.08 -0.047448 9.77979
          }
        }
      }
    }
  }
}
MOTION
Frames:	17
Frame Time:	0.0166667
-882.139 82.4529 433.365 -50.1192 20.746 -79.9335 -62.9581 -44.6017 -61.7615 -175.537 49.7024 -164.93 -0.0944228 6.49486 -3.06587 0.0462048 0.000533403 0.662642 9.88238 41.2925 -6.94711 -0.00497025 0.0095 -0.0107599 12.004 15.0126 -33.415 1.59028e-015 -1.78906e-015 -1.59028e-015 -91.3014 -15.6935 -60.9718 -54.2773 44.9701 -64.5997 16.6171 15.815 -16.1123 37.4551 3.27202 -9.09476 102.485 -45.2677 93.8245 33.5424 49.1419 71.8869 17.0088 23.0943 1.91461 49.3217 24.0805 -49.7825 -68.0867 25.4689 82.3245 -46.8188 -8.10193 -14.819 3.92343e-009 1.5602e-007 -4.87131e-009 
-879.926 82.6473 434.631 -46.2558 19.9247 -82.3786 -53.7862 -46.728 -64.2623 -165.449 48.6305 179.345 1.50192 5.01378 -3.42133 0.0462048 0.000533403 0.662642 7.15457 39.3515 -5.26117 0.000469215 0.10637 -0.03803 12.033 14.1179 -32.8244 -1.59028e-015 -1.19271e-015 -0 -92.0394 -16.0017 -61.3308 -54.2525 45.8013 -64.3127 16.4633 16.0107 -15.5835 37.1927 3.68741 -9.072 103.4 -44.5257 94.2952 33.1243 49.6838 73.1463 16.9415 22.7619 1.60437 45.0071 20.4363 -44.7848 -70.0195 25.4187 85.7449 -44.079 -7.72148 -14.9844 3.92344e-009 1.5602e-007 -4.87131e-009 
-877.659 83.1526 435.908 -42.9882 19.2343 -84.3595 -45.5176 -49.0289 -66.359 -157.505 46.3757 165.917 2.16019 4.07929 -3.74077 0.0462048 0.000533403 0.662642 5.35657 38.7832 -4.61689 0.0125092 0.10043 -0.0366503 11.9129 12.5266 -31.7405 -6.62086e-032 7.95139e-016 4.77083e-015 -92.9485 -16.7519 -62.2472 -54.425 46.899 -64.0766 16.2078 16.1365 -14.4566 36.9174 3.77501 -8.36147 104.297 -43.7012 94.8088 32.6586 50.2827 74.3546 16.894 22.0388 0.959451 41.5229 16.9133 -40.5897 -71.1296 25.2204 88.5233 -41.2951 -7.47991 -14.8548 3.92344e-009 1.5602e-007 -4.87132e-009 
-875.257 83.9538 437.251 -40.2155 18.754 -85.9822 -38.2509 -51.1148 -68.0708 -150.895 45.0982 154.468 2.4497 3.39427 -3.90683 0.0462048 0.000533403 0.662642 4.46886 39.3917 -4.86282 0.0213193 0.09193 -0.0350905 11.6103 10.3124 -30.1943 0 0 -1.59028e-015 -94.126 -17.8706 -63.9561 -54.8926 47.9828 -63.6783 16.0735 16.3123 -13.8779 36.5416 3.52566 -7.04448 105.086 -42.7891 95.2182 32.1611 50.9112 75.5397 16.6796 21.5624 0.682197 38.6822 13.6177 -37.0113 -71.3058 24.8436 90.5234 -38.3556 -7.37521 -14.3378 3.92343e-009 1.5602e-007 -4.87132e-009 
-872.744 84.9182 438.679 -37.8348 18.5069 -87.3564 -33.3815 -52.5605 -69.5144 -145.317 44.2816 145.923 2.5294 3.11214 -3.84289 0.0462048 0.000533403 0.662642 4.48387 40.9656 -5.90985 0.0267893 0.08394 -0.0343407 11.777 8.83052 -28.5057 -0 0 3.18055e-015 -95.6414 -19.2501 -66.3738 -55.5745 48.9818 -63.1127 15.9208 16.4438 -13.0498 35.939 2.97168 -5.20115 105.781 -41.8091 95.4485 31.6293 51.5291 76.6878 16.4747 20.9748 0.265501 36.3672 10.6085 -33.9333 -70.6572 24.2649 91.7706 -35.2258 -7.39631 -13.5051 3.92344e-009 1.5602e-007 -4.87131e-009 
-870.031 85.9157 440.262 -35.6071 18.2982 -88.6652 -27.7199 -52.8244 -69.4432 -136.254 45.0079 135.625 2.82016 2.32403 -3.71361 0.0462048 0.000533403 0.662642 4.76143 42.7 -7.18331 0.0091197 0.02452 -0.0137302 12.0983 7.7184 -26.7991 -1.59028e-015 0 -1.59028e-015 -97.1556 -20.782 -68.7849 -57.7962 49.647 -60.3434 16.3445 17.1348 -13.8718 35.0262 5.54812 -5.38786 108.847 -37.9567 98.4787 30.9779 52.226 78.0596 16.2342 20.4384 -0.0960818 34.1502 7.70075 -31.0693 -69.2751 23.5535 92.4245 -31.8362 -7.38157 -12.2507 3.92344e-009 1.5602e-007 -4.87132e-009 
-867.157 86.7542 441.99 -32.9233 18.3532 -90.4194 -20.7669 -51.9939 -67.7194 -123.128 46.2672 122.952 2.87724 1.3123 -3.56857 0.0462048 0.000533403 0.662642 5.25494 44.047 -8.24045 0.00996974 0.0214 -0.0118102 12.4581 6.86832 -25.0016 2.64834e-031 -2.38542e-015 6.36111e-015 -98.8699 -22.376 -71.4444 -59.992 50.2435 -57.8564 16.676 17.7777 -14.5118 33.9792 6.97165 -4.88473 110.691 -34.8678 100.057 30.2559 52.9096 79.4804 15.9508 19.9415 -0.421312 32.157 4.56522 -27.8557 -67.2665 22.6728 92.5715 -28.1656 -7.24525 -10.6474 3.92343e-009 1.5602e-007 -4.87132e-009 
-864.187 87.3934 443.822 -29.7685 18.5598 -92.7098 -13.0642 -50.0313 -64.7332 -107.208 46.5485 108.579 2.31494 0.292214 -3.38658 0.0462048 0.000533403 0.662642 5.83234 45.0146 -8.98076 0.0111297 0.01979 -0.0128603 12.596 5.97358 -23.0481 -1.59028e-015 -1.98785e-015 -0 -100.816 -23.9855 -74.2942 -62.1399 50.8227 -55.6504 16.9182 18.3837 -14.9771 32.6559 7.48958 -3.88673 111.862 -32.3686 100.713 29.5329 53.5045 80.8139 15.6331 19.4977 -0.713051 30.4008 1.16871 -24.292 -64.8118 21.602 92.3611 -24.2583 -6.89013 -8.82236 3.92344e-009 1.5602e-007 -4.87131e-009 
-861.178 88.2471 445.618 -26.2125 18.2046 -95.5946 -5.23683 -46.8644 -60.5792 -90.1846 44.6727 93.0766 1.28472 -0.613198 -3.09177 0.0462048 0.000533403 0.662642 5.45286 45.6315 -9.22761 -0.00362058 0.01514 -0.0248799 12.4365 4.92222 -20.2848 6.62086e-032 3.97569e-016 -9.54166e-015 -103.413 -27.3721 -77.7463 -64.2912 51.3922 -53.4053 20.2014 22.5379 -13.7557 28.3333 7.19816 -4.81827 113.594 -27.4832 97.4947 29.3088 54.2056 82.264 16.3832 15.2412 2.45352 28.4859 -2.94104 -20.522 -61.459 21.2142 92.5525 -15.8972 -6.71184 -6.58451 3.92343e-009 1.5602e-007 -4.87132e-009 
-858.244 89.0078 447.335 -22.4143 17.2814 -98.9582 1.66936 -42.8528 -56.0932 -74.2032 40.3814 78.3731 -0.110634 -1.3286 -2.59251 0.0462048 0.000533403 0.662642 4.15677 45.5306 -8.80621 -0.00440009 -0.00829999 -0.00325989 11.9247 4.0044 -17.1594 -2.38542e-015 -3.18055e-015 -3.18055e-015 -106.944 -31.9798 -81.6216 -66.4287 51.9265 -51.0789 25.0195 27.7109 -12.1792 24.5405 6.36029 -5.39442 113.755 -23.1271 92.8834 29.7248 54.8917 83.5719 16.2611 14.7331 3.94904 26.5877 -7.37506 -16.8007 -57.0123 21.3346 92.4793 -5.28015 -6.00956 -4.14318 3.92344e-009 1.5602e-007 -4.87132e-009 
-855.482 89.8024 448.949 -18.5676 15.7793 -102.694 7.0925 -38.3804 -51.6447 -60.3152 34.1253 65.6045 -1.80155 -1.89913 -1.92947 0.0462048 0.000533403 0.662642 2.04426 44.7944 -7.80105 -0.00494282 -0.01093 -0.00237962 11.0782 3.08204 -13.7128 -1.98785e-016 -5.66536e-015 -3.18055e-015 -111.882 -37.4125 -86.3971 -68.4578 52.4481 -48.6165 27.1469 28.8452 -12.7404 21.1822 5.14848 -5.73225 112.775 -18.9213 87.4667 28.0813 55.0297 86.8551 15.9344 15.449 4.58443 24.7267 -11.7964 -13.2686 -51.4599 21.6768 91.7101 6.43198 -4.41284 -1.86993 3.92344e-009 1.5602e-007 -4.87132e-009 
-853.064 90.6492 450.351 -14.9516 13.0353 -107.709 10.5775 -33.6667 -45.3895 -48.3417 28.6443 53.4282 -4.83404 -2.44076 -1.27754 0.0462048 0.000533403 0.662642 -2.49452 42.6445 -4.85446 -0.00550822 -0.02915 -0.00237962 10.1223 2.82843 -10.4534 5.96354e-016 -3.35449e-015 -3.18055e-015 -120.694 -45.0778 -93.718 -69.8458 53.4999 -45.647 22.2693 21.1713 -16.9342 19.9192 3.38409 -4.44528 110.628 -17.2787 83.3898 26.9293 54.8603 89.3828 15.097 18.3494 3.35795 22.7417 -15.9933 -9.69079 -44.7695 22.8801 89.8436 19.5302 -1.75373 -0.267255 3.92343e-009 1.5602e-007 -4.87131e-009 
-850.86 91.9496 451.67 -12.2604 10.5272 -111.819 11.3888 -27.9219 -40.1003 -35.8409 23.0513 40.5756 -9.05472 -2.17791 -0.375887 0.0462048 0.000533403 0.662642 -6.05675 40.0949 -2.91447 -0.0060734 -0.02213 -0.00237962 9.08084 3.08763 -7.39994 -5.96354e-016 -2.08724e-015 3.18055e-015 -128.902 -50.1764 -100.69 -71.4148 54.5625 -43.4685 21.499 19.8197 -16.7089 19.1488 2.5564 -3.60312 108.89 -15.6081 80.3867 25.9811 54.681 91.4218 15.2603 18.4962 3.17022 22.833 -19.1476 -8.24182 -40.5418 25.0375 88.6806 11.3502 0.401323 0.617932 3.92344e-009 1.5602e-007 -4.87132e-009 
-850.894 92.6986 451.83 -10.3633 8.40367 -115.168 10.7124 -23.9166 -35.2586 -26.9334 19.5176 29.6319 -13.8769 -3.24448 -0.90537 0.0462048 0.000533403 0.662642 -8.72043 37.3811 -1.75181 -0.00661826 -0.01306 -0.00237962 7.98724 3.77342 -4.57003 2.98177e-015 -2.18663e-015 -0 -135.893 -53.8228 -106.7 -72.9363 55.4423 -41.8741 19.3661 16.6186 -18.3553 18.725 2.56419 -2.9556 107.487 -14.1713 78.1187 25.0728 54.6075 93.1603 14.8728 19.9637 2.29741 23.988 -21.8339 -7.17996 -39.6089 28.9617 87.9706 9.79014 0.45719 0.458308 3.92344e-009 1.5602e-007 -4.87132e-009 
-851.195 93.4218 451.958 -9.12826 6.72734 -117.892 8.6067 -20.3586 -30.4726 -17.834 16.8898 18.1227 -19.3979 -4.00033 -1.45219 0.0462048 0.000533403 0.662642 -10.6065 34.6598 -1.14449 -0.00712185 -0.00392998 -0.00237962 6.85652 4.78843 -1.96903 -1.39149e-015 -1.78906e-015 -0 -141.501 -56.7274 -111.528 -74.2103 56.0878 -40.7003 19.4023 16.5998 -17.5703 18.5278 3.27762 -2.45542 106.344 -13.0181 76.3335 24.1374 54.6737 94.7023 14.9088 19.8983 2.16924 25.3969 -23.8675 -6.64611 -40.5069 31.5936 88.499 4.69278 0.345928 0.395247 3.92344e-009 1.5602e-007 -4.87131e-009 
-851.76 93.9237 452.07 -8.42782 5.49804 -120.105 5.24594 -17.4642 -25.5601 -8.21621 15.2515 6.15727 -25.6236 -4.53141 -2.04637 0.0462048 0.000533403 0.662642 -11.8237 32.0213 -0.91708 -0.00756313 0.00447001 -0.00237962 5.69122 6.04571 0.399568 1.59028e-015 -1.59028e-015 3.18055e-015 -145.843 -59.31 -115.205 -75.2377 56.5588 -39.8385 18.4651 15.286 -18.2716 18.4332 4.55574 -2.09334 105.425 -12.1457 74.8938 23.1922 54.8357 96.0549 14.5957 20.6431 1.73437 26.5573 -25.5523 -6.58072 -41.9831 32.9019 89.4118 2.85594 0.421781 0.312699 3.92344e-009 1.5602e-007 -4.87131e-009 
-852.491 94.2106 452.203 -8.14098 4.67655 -121.895 1.59829 -15.0454 -20.2627 0.889577 13.2353 -5.83333 -31.7591 -4.3157 -2.47062 0.0462048 0.000533403 0.662642 -12.4555 29.511 -0.946901 -0.00792107 0.01203 -0.00237962 4.48843 7.46644 2.53628 3.97569e-016 5.96354e-015 1.59028e-014 -149.178 -61.7497 -117.907 -76.0771 56.9009 -39.1118 18.6604 15.6385 -17.6253 18.339 6.25183 -1.87522 104.713 -11.5209 73.7233 22.2804 55.0471 97.218 14.5424 20.555 1.80823 27.4221 -26.804 -6.9742 -42.5207 32.398 88.0172 1.47178 0.331406 0.295843 3.92344e-009 1.5602e-007 -4.87131e-009 
